<?xml version="1.0" encoding="utf-8"?>
<!-- Generator: Adobe Illustrator 25.0.0, SVG Export Plug-In . SVG Version: 6.00 Build 0)  -->
<svg version="1.1" id="Layer_1" xmlns="http://www.w3.org/2000/svg" xmlns:xlink="http://www.w3.org/1999/xlink" x="0px" y="0px"
	 viewBox="0 0 3000 2000" style="enable-background:new 0 0 3000 2000;" xml:space="preserve">
<style type="text/css">
	.st0{fill:#FFFFFF;}
</style>
<g>
	<path class="st0" d="M500.64,835.46l-57.91,68.4H196.09c3.99,55.43,55.92,126.18,146.78,126.18c52.92,0,97.85-17.69,128.81-42.45
		l-11.98,127.36c-33.95,20.05-79.88,34.2-138.79,34.2c-133.8,0-246.63-113.21-246.63-283.03c0-178.07,112.83-281.85,230.66-281.85
		c124.81,0,198.7,103.78,198.7,208.73C503.63,807.16,502.64,823.67,500.64,835.46z M306.93,695.13
		c-48.93,0-97.85,45.99-107.84,107.32h189.72c0-4.72,1-8.25,1-12.97C389.8,744.66,356.85,695.13,306.93,695.13z"/>
	<path class="st0" d="M822.16,1081.93c-68.9,206.38-141.79,287.75-228.66,330.2l-73.89-87.27c76.89-36.56,135.8-100.24,180.73-233.5
		L534.59,599.61h117.82l73.89,224.06c9.99,31.84,23.96,74.29,32.95,114.39h2c10.98-37.74,24.96-82.55,34.95-113.21l74.89-225.24
		h110.84L822.16,1081.93z"/>
	<path class="st0" d="M1433.26,835.46l-57.91,68.4h-246.63c3.99,55.43,55.92,126.18,146.78,126.18c52.92,0,97.85-17.69,128.81-42.45
		l-11.98,127.36c-33.95,20.05-79.88,34.2-138.79,34.2c-133.8,0-246.63-113.21-246.63-283.03c0-178.07,112.83-281.85,230.66-281.85
		c124.81,0,198.7,103.78,198.7,208.73C1436.26,807.16,1435.26,823.67,1433.26,835.46z M1239.55,695.13
		c-48.93,0-97.86,45.99-107.84,107.32h189.72c0-4.72,1-8.25,1-12.97C1322.43,744.66,1289.47,695.13,1239.55,695.13z"/>
	<path class="st0" d="M1766.77,1133.82l-53.92-110.85c-7.99-16.51-16.98-36.56-24.96-56.61h-2c-6.99,20.05-18.97,41.27-25.96,56.61
		l-53.92,110.85h-119.82l134.8-268.88l-128.81-265.34H1615l49.92,103.78c7.99,16.51,14.98,31.84,22.97,50.71h2
		c6.99-17.69,14.98-33.02,23.96-50.71l50.92-103.78h119.82l-128.81,258.26l134.8,275.95H1766.77z"/>
	<path class="st0" d="M2170.18,1149.15c-135.8,0-243.64-114.39-243.64-281.85c0-168.64,107.84-283.03,243.64-283.03
		c134.8,0,242.64,114.39,242.64,283.03C2412.82,1034.76,2305.98,1149.15,2170.18,1149.15z M2170.18,708.1
		c-66.9,0-124.81,66.04-124.81,161.56c0,94.34,57.91,160.38,124.81,160.38c66.9,0,124.81-66.04,124.81-160.38
		C2294.99,774.14,2237.08,708.1,2170.18,708.1z"/>
	<path class="st0" d="M2718.36,1149.15c-135.8,0-243.64-114.39-243.64-281.85c0-168.64,107.84-283.03,243.64-283.03
		c134.8,0,242.64,114.39,242.64,283.03C2961,1034.76,2854.16,1149.15,2718.36,1149.15z M2718.36,708.1
		c-66.9,0-124.81,66.04-124.81,161.56c0,94.34,57.91,160.38,124.81,160.38c66.9,0,124.81-66.04,124.81-160.38
		C2843.18,774.14,2785.26,708.1,2718.36,708.1z"/>
</g>
</svg>
